<mxfile host="app.diagrams.net" modified="2021-07-30T21:37:33.714Z" agent="5.0 (Macintosh; Intel Mac OS X 10_15_7) AppleWebKit/605.1.15 (KHTML, like Gecko) Version/14.1.1 Safari/605.1.15" etag="hFeKE-tBKS_Assdyp0s6" version="14.9.3" type="github">
  <diagram id="26IZYg_4WByHPdlWehGA" name="Page-1">
    <mxGraphModel dx="736" dy="625" grid="1" gridSize="10" guides="1" tooltips="1" connect="1" arrows="1" fold="1" page="1" pageScale="1" pageWidth="850" pageHeight="1100" math="0" shadow="0">
      <root>
        <mxCell id="0" />
        <mxCell id="1" parent="0" />
        <mxCell id="faTPQKULuV8uXoHvE5oI-4" value="&lt;font style=&quot;font-size: 20px&quot;&gt;Student User1&lt;/font&gt;" style="text;html=1;align=center;verticalAlign=middle;resizable=0;points=[];autosize=1;strokeColor=none;" vertex="1" parent="1">
          <mxGeometry x="43" y="730" width="140" height="20" as="geometry" />
        </mxCell>
        <mxCell id="faTPQKULuV8uXoHvE5oI-6" value="" style="aspect=fixed;perimeter=ellipsePerimeter;html=1;align=center;shadow=0;dashed=0;fontColor=#4277BB;labelBackgroundColor=#ffffff;fontSize=12;spacingTop=3;image;image=img/lib/ibm/blockchain/blockchain.svg;" vertex="1" parent="1">
          <mxGeometry x="310" y="80" width="135" height="135" as="geometry" />
        </mxCell>
        <mxCell id="faTPQKULuV8uXoHvE5oI-7" value="" style="aspect=fixed;perimeter=ellipsePerimeter;html=1;align=center;shadow=0;dashed=0;fontColor=#4277BB;labelBackgroundColor=#ffffff;fontSize=12;spacingTop=3;image;image=img/lib/ibm/blockchain/blockchain_developer.svg;" vertex="1" parent="1">
          <mxGeometry x="60" y="630" width="80" height="80" as="geometry" />
        </mxCell>
        <mxCell id="faTPQKULuV8uXoHvE5oI-9" value="&lt;font style=&quot;font-size: 20px&quot;&gt;Conflux Blockchain&lt;/font&gt;" style="text;html=1;align=center;verticalAlign=middle;resizable=0;points=[];autosize=1;strokeColor=none;" vertex="1" parent="1">
          <mxGeometry x="290" y="40" width="190" height="20" as="geometry" />
        </mxCell>
        <mxCell id="faTPQKULuV8uXoHvE5oI-10" value="" style="outlineConnect=0;fontColor=#232F3E;gradientColor=none;fillColor=#277116;strokeColor=none;dashed=0;verticalLabelPosition=bottom;verticalAlign=top;align=center;html=1;fontSize=12;fontStyle=0;aspect=fixed;pointerEvents=1;shape=mxgraph.aws4.data_set;" vertex="1" parent="1">
          <mxGeometry x="60" y="472" width="63" height="78" as="geometry" />
        </mxCell>
      </root>
    </mxGraphModel>
  </diagram>
</mxfile>
